<?xml version="1.0" standalone="no"?><!DOCTYPE svg PUBLIC "-//W3C//DTD SVG 1.1//EN" "http://www.w3.org/Graphics/SVG/1.1/DTD/svg11.dtd"><svg t="1715354743130" class="icon" viewBox="0 0 1024 1024" version="1.1" xmlns="http://www.w3.org/2000/svg" p-id="4839" xmlns:xlink="http://www.w3.org/1999/xlink" width="200" height="200"><path d="M277.333333 874.666667h469.333334v85.333333H277.333333zM746.666667 819.2V874.666667H277.333333v-55.466667a42.666667 42.666667 0 0 1 18.133334-34.773333L298.666667 789.333333h426.666666l3.2-4.906666A42.666667 42.666667 0 0 1 746.666667 819.2z" fill="#F0F3FF" p-id="4840"></path><path d="M718.506667 779.093333a40.981333 40.981333 0 0 1 10.026666 5.333334L725.333333 789.333333H298.666667l-3.2-4.906666a40.981333 40.981333 0 0 1 10.026666-5.333334L512 704zM745.813333 597.333333a43.050667 43.050667 0 0 1-27.306666 31.573334L512 704l-206.506667-75.093333A43.050667 43.050667 0 0 1 278.186667 597.333333zM746.666667 512v76.8a37.376 37.376 0 0 1-0.853334 8.533333H278.186667a37.376 37.376 0 0 1-0.853334-8.533333V512zM746.666667 435.2V512H277.333333v-76.8a37.376 37.376 0 0 1 0.853334-8.533333h467.626666a37.376 37.376 0 0 1 0.853334 8.533333zM745.813333 426.666667H278.186667a43.050667 43.050667 0 0 1 27.306666-31.573334L512 320l206.506667 75.093333A43.050667 43.050667 0 0 1 745.813333 426.666667zM298.666667 234.666667h426.666666l3.2 4.906666a40.981333 40.981333 0 0 1-10.026666 5.333334L512 320l-206.506667-75.093333a40.981333 40.981333 0 0 1-10.026666-5.333334z" fill="#F0F3FF" p-id="4841"></path><path d="M746.666667 149.333333v55.466667a42.666667 42.666667 0 0 1-18.133334 34.773333L725.333333 234.666667H298.666667l-3.2 4.906666A42.666667 42.666667 0 0 1 277.333333 204.8V149.333333zM277.333333 64h469.333334v85.333333H277.333333z" fill="#F0F3FF" p-id="4842"></path><path d="M960 960m-42.666667 0a42.666667 42.666667 0 1 0 85.333334 0 42.666667 42.666667 0 1 0-85.333334 0Z" fill="#567BFF" p-id="4843"></path><path d="M938.666667 597.333333m-42.666667 0a42.666667 42.666667 0 1 0 85.333333 0 42.666667 42.666667 0 1 0-85.333333 0Z" fill="#24F2DC" p-id="4844"></path><path d="M106.666667 149.333333m-42.666667 0a42.666667 42.666667 0 1 0 85.333333 0 42.666667 42.666667 0 1 0-85.333333 0Z" fill="#24F2DC" p-id="4845"></path><path d="M64 789.333333m-42.666667 0a42.666667 42.666667 0 1 0 85.333334 0 42.666667 42.666667 0 1 0-85.333334 0Z" fill="#567BFF" p-id="4846"></path><path d="M960 234.666667m-42.666667 0a42.666667 42.666667 0 1 0 85.333334 0 42.666667 42.666667 0 1 0-85.333334 0Z" fill="#567BFF" p-id="4847"></path><path d="M298.666667 1002.666667h-42.666667v-183.466667a64.277333 64.277333 0 0 1 27.093333-52.16 63.253333 63.253333 0 0 1 15.232-8.064l412.885334-150.101333a21.76 21.76 0 0 0 13.717333-15.893334A18.176 18.176 0 0 0 725.333333 588.8v-153.6a17.664 17.664 0 0 0-0.298666-3.690667 21.994667 21.994667 0 0 0-13.824-16.384L298.218667 264.96a62.848 62.848 0 0 1-15.104-7.957333A64.384 64.384 0 0 1 256 204.8V21.333333h42.666667v183.466667a21.504 21.504 0 0 0 9.173333 17.408 19.605333 19.605333 0 0 0 4.821333 2.602667l413.12 150.229333a64.597333 64.597333 0 0 1 40.896 47.36 55.466667 55.466667 0 0 1 1.322667 12.8v153.6a57.856 57.856 0 0 1-1.408 13.376 64.448 64.448 0 0 1-40.810667 46.784l-412.992 150.165333a20.266667 20.266667 0 0 0-4.992 2.709334A21.333333 21.333333 0 0 0 298.666667 819.2z" fill="#48DAE0" p-id="4848"></path><path d="M768 1002.666667h-42.666667v-183.466667a21.504 21.504 0 0 0-9.173333-17.408 19.605333 19.605333 0 0 0-4.821333-2.602667L298.218667 648.96a64.597333 64.597333 0 0 1-40.896-47.36 55.466667 55.466667 0 0 1-1.322667-12.8v-153.6a57.856 57.856 0 0 1 1.408-13.376 64.448 64.448 0 0 1 40.810667-46.784l412.992-150.165333a20.266667 20.266667 0 0 0 4.992-2.709334A21.333333 21.333333 0 0 0 725.333333 204.8V21.333333h42.666667v183.466667a64.277333 64.277333 0 0 1-27.093333 52.16 63.253333 63.253333 0 0 1-15.232 8.064l-412.885334 150.101333a21.76 21.76 0 0 0-13.717333 15.893334 18.176 18.176 0 0 0-0.405333 4.266666v153.6a17.664 17.664 0 0 0 0.298666 3.690667 21.994667 21.994667 0 0 0 13.824 16.384l412.992 150.08a62.848 62.848 0 0 1 15.104 7.957333A64.384 64.384 0 0 1 768 819.2z" fill="#567BFF" p-id="4849"></path><path d="M307.84 222.208a19.605333 19.605333 0 0 0 4.821333 2.602667L398.442667 256h227.157333l85.610667-31.125333a20.266667 20.266667 0 0 0 4.992-2.709334 21.738667 21.738667 0 0 0 7.146666-8.832H300.650667a21.76 21.76 0 0 0 7.189333 8.874667z" fill="#00BFB7" p-id="4850"></path><path d="M298.666667 128h426.666666v42.666667H298.666667zM298.666667 42.666667h426.666666v42.666666H298.666667zM298.666667 938.666667h426.666666v42.666666H298.666667zM298.666667 853.333333h426.666666v42.666667H298.666667z" fill="#4C64E0" p-id="4851"></path><path d="M716.16 801.792a19.605333 19.605333 0 0 0-4.821333-2.602667L625.557333 768H398.4l-85.610667 31.125333a20.266667 20.266667 0 0 0-4.992 2.709334 21.738667 21.738667 0 0 0-7.146666 8.832h422.698666a21.76 21.76 0 0 0-7.189333-8.874667zM298.666667 588.8a17.664 17.664 0 0 0 0.298666 3.690667 21.994667 21.994667 0 0 0 13.824 16.384l26.922667 9.792h344.554667l26.944-9.792a21.76 21.76 0 0 0 13.717333-15.893334A18.176 18.176 0 0 0 725.333333 588.8V576H298.666667z" fill="#00BFB7" p-id="4852"></path><path d="M298.666667 490.666667h426.666666v42.666666H298.666667z" fill="#4C64E0" p-id="4853"></path><path d="M312.789333 415.125333a21.76 21.76 0 0 0-13.717333 15.893334 18.176 18.176 0 0 0-0.405333 4.266666V448h426.666666v-12.8a17.664 17.664 0 0 0-0.298666-3.690667 21.994667 21.994667 0 0 0-13.824-16.384L684.288 405.333333H339.733333z" fill="#00BFB7" p-id="4854"></path><path d="M174.656 584.938667l-115.904 162.261333A42.453333 42.453333 0 0 1 64 746.666667a42.666667 42.666667 0 0 1 34.666667 18.026666L202.986667 618.666667H234.666667v-42.666667H192a21.333333 21.333333 0 0 0-17.344 8.938667zM960 917.333333a41.429333 41.429333 0 0 1 10.218667 1.386667l-123.136-123.136A21.333333 21.333333 0 0 0 832 789.333333h-42.666667v42.666667h33.834667l102.698667 102.698667A42.666667 42.666667 0 0 1 960 917.333333zM849.301333 439.168l117.333334-162.517333A40.213333 40.213333 0 0 1 960 277.333333a42.666667 42.666667 0 0 1-34.026667-17.237333L821.077333 405.333333H789.333333v42.666667h42.666667a21.333333 21.333333 0 0 0 17.301333-8.832zM149.333333 149.333333a42.133333 42.133333 0 0 1-5.952 21.333334H234.666667V128H143.381333A42.133333 42.133333 0 0 1 149.333333 149.333333zM896 597.333333a42.133333 42.133333 0 0 1 5.952-21.333333H789.333333v42.666667h112.618667A42.133333 42.133333 0 0 1 896 597.333333z" fill="#2B3E5B" p-id="4855"></path><path d="M298.666667 1002.666667h-42.666667v-183.466667a64.149333 64.149333 0 0 1 42.133333-60.117333l413.162667-150.250667A21.333333 21.333333 0 0 0 725.333333 588.8v-153.6a21.333333 21.333333 0 0 0-14.037333-20.032l-413.162667-150.250667A64.149333 64.149333 0 0 1 256 204.8V21.333333h42.666667v183.466667a21.333333 21.333333 0 0 0 14.037333 20.032l413.162667 150.250667A64.149333 64.149333 0 0 1 768 435.2v153.6a64.149333 64.149333 0 0 1-42.133333 60.117333l-413.162667 150.250667A21.333333 21.333333 0 0 0 298.666667 819.2z" p-id="4856"></path><path d="M768 1002.666667h-42.666667v-183.466667a21.333333 21.333333 0 0 0-14.037333-20.032l-413.162667-150.250667A64.149333 64.149333 0 0 1 256 588.8v-153.6a64.149333 64.149333 0 0 1 42.133333-60.117333l413.162667-150.250667A21.333333 21.333333 0 0 0 725.333333 204.8V21.333333h42.666667v183.466667a64.149333 64.149333 0 0 1-42.133333 60.117333l-413.162667 150.250667A21.333333 21.333333 0 0 0 298.666667 435.2v153.6a21.333333 21.333333 0 0 0 14.037333 20.032l413.162667 150.250667A64.149333 64.149333 0 0 1 768 819.2z" p-id="4857"></path><path d="M298.666667 213.333333h426.666666v42.666667H298.666667zM384 128h362.666667v42.666667H384zM277.333333 128h64v42.666667h-64zM277.333333 42.666667h469.333334v42.666666H277.333333zM277.333333 938.666667h469.333334v42.666666H277.333333zM384 853.333333h362.666667v42.666667H384zM277.333333 853.333333h64v42.666667h-64zM298.666667 768h426.666666v42.666667H298.666667zM277.333333 576h469.333334v42.666667H277.333333zM682.666667 490.666667h64v42.666666h-64zM277.333333 490.666667h362.666667v42.666666H277.333333zM277.333333 405.333333h469.333334v42.666667H277.333333zM102.698667 759.061333l-34.730667-24.789333 106.666667-149.333333A21.333333 21.333333 0 0 1 192 576h42.666667v42.666667H202.986667z" p-id="4858"></path><path d="M64 853.333333a64 64 0 1 1 64-64 64 64 0 0 1-64 64z m0-85.333333a21.333333 21.333333 0 1 0 21.333333 21.333333 21.333333 21.333333 0 0 0-21.333333-21.333333zM923.584 932.416L823.168 832H789.333333v-42.666667h42.666667a21.333333 21.333333 0 0 1 15.082667 6.250667l106.666666 106.666667z" p-id="4859"></path><path d="M960 1024a64 64 0 1 1 64-64 64 64 0 0 1-64 64z m0-85.333333a21.333333 21.333333 0 1 0 21.333333 21.333333 21.333333 21.333333 0 0 0-21.333333-21.333333zM832 448h-42.666667v-42.666667h31.68l100.266667-140.394666 34.730667 24.789333-106.666667 149.333333A21.333333 21.333333 0 0 1 832 448z" p-id="4860"></path><path d="M960 298.666667a64 64 0 1 1 64-64 64 64 0 0 1-64 64z m0-85.333334a21.333333 21.333333 0 1 0 21.333333 21.333334 21.333333 21.333333 0 0 0-21.333333-21.333334zM789.333333 576h106.666667v42.666667h-106.666667z" p-id="4861"></path><path d="M938.666667 661.333333a64 64 0 1 1 64-64 64 64 0 0 1-64 64z m0-85.333333a21.333333 21.333333 0 1 0 21.333333 21.333333 21.333333 21.333333 0 0 0-21.333333-21.333333zM128 128h106.666667v42.666667H128z" p-id="4862"></path><path d="M106.666667 213.333333a64 64 0 1 1 64-64 64 64 0 0 1-64 64z m0-85.333333a21.333333 21.333333 0 1 0 21.333333 21.333333 21.333333 21.333333 0 0 0-21.333333-21.333333z" p-id="4863"></path></svg>