<?xml version="1.0" standalone="no"?><!DOCTYPE svg PUBLIC "-//W3C//DTD SVG 1.1//EN" "http://www.w3.org/Graphics/SVG/1.1/DTD/svg11.dtd"><svg t="1715317174339" class="icon" viewBox="0 0 1024 1024" version="1.1" xmlns="http://www.w3.org/2000/svg" p-id="9421" xmlns:xlink="http://www.w3.org/1999/xlink" width="200" height="200"><path d="M85.333333 192a42.666667 42.666667 0 0 1 42.666667-42.666667h222.293333A204.16 204.16 0 0 1 554.666667 353.28V874.666667a42.666667 42.666667 0 1 1-85.333334 0c0-20.224-7.424-31.786667-18.133333-39.68-12.373333-9.130667-32.853333-15.658667-60.458667-15.658667H128a42.666667 42.666667 0 0 1-42.666667-42.666667V192z m384 556.245333V353.28A118.826667 118.826667 0 0 0 350.293333 234.666667H170.666667v499.328h220.074666c26.794667 0 54.016 4.224 78.592 14.250666z" fill="#666666" p-id="9422"></path><path d="M469.333333 353.28a204.16 204.16 0 0 1 204.373334-203.946667H896a42.666667 42.666667 0 0 1 42.666667 42.666667v584.661333a42.666667 42.666667 0 0 1-42.666667 42.666667h-262.741333c-27.605333 0-48.085333 6.528-60.458667 15.658667-10.666667 7.893333-18.133333 19.456-18.133333 39.68a42.666667 42.666667 0 1 1-85.333334 0V353.28z m85.333334 394.965333c24.576-10.026667 51.754667-14.250667 78.592-14.250666H853.333333V234.666667h-179.626666A118.826667 118.826667 0 0 0 554.666667 353.28v394.965333z" fill="#666666" p-id="9423"></path><path d="M743.253333 294.912a46.933333 46.933333 0 0 0-46.933333 46.933333V490.666667a46.933333 46.933333 0 0 0 46.933333 46.933333h151.04l4.266667-4.266667V299.093333l-4.266667-4.266666h-151.04z m34.218667 160.384V377.472h76.202667v77.824h-76.202667z" fill="#666666" p-id="9424"></path></svg>